<?xml version="1.0" encoding="utf-8"?>
<!-- Generator: Adobe Illustrator 28.3.0, SVG Export Plug-In . SVG Version: 6.00 Build 0)  -->
<svg version="1.1" id="Layer_1" xmlns="http://www.w3.org/2000/svg" xmlns:xlink="http://www.w3.org/1999/xlink" x="0px" y="0px"
	 viewBox="0 0 100 100" style="enable-background:new 0 0 100 100;" xml:space="preserve">
<style type="text/css">
	.st0{fill:url(#Background_00000182502694276274988180000005361892383813659051_);}
	.st1{fill:#2E2E30;}
	.st2{fill:#7F7F7F;}
	.st3{fill:#777777;}
	.st4{fill:none;}
	.st5{fill:url(#SVGID_1_);}
</style>
<g id="Symbols_8_">
	<g id="Graphics-_x2F_-App-Icons-_x2F_-Settings-">
		<g id="Settings-Icon">
			
				<linearGradient id="Background_00000092426557509784704920000010531587221041884042_" gradientUnits="userSpaceOnUse" x1="-1078.8667" y1="-27.2" x2="-1078.8667" y2="-25.5333" gradientTransform="matrix(60 0 0 60 64782 1632)">
				<stop  offset="0" style="stop-color:#D3D7DD"/>
				<stop  offset="1" style="stop-color:#888C90"/>
			</linearGradient>
			<path id="Background_9_" style="fill:url(#Background_00000092426557509784704920000010531587221041884042_);" d="M65.1,0
				c10,0,15,0,20.4,1.7c5.9,2.1,10.6,6.8,12.7,12.7c1.8,5.4,1.8,10.6,1.8,20.6v30.2c0,10,0,15-1.7,20.4c-2.1,5.9-6.8,10.6-12.7,12.7
				c-5.6,1.8-10.6,1.8-20.6,1.8H34.9c-10,0-15,0-20.4-1.7c-6-2.2-10.6-6.8-12.8-12.8C0,80.2,0,75.2,0,65.1V34.9c0-10,0-15,1.7-20.4
				C3.9,8.6,8.4,3.9,14.4,1.8C19.8,0,24.8,0,34.9,0H65.1z"/>
			<circle id="Oval_3_" class="st1" cx="50" cy="50" r="43.3"/>
			<g id="Shape_3_" transform="translate(30.000000, 30.000000) rotate(8.000000) translate(-30.000000, -30.000000) ">
				<g>
					<path id="path-3_14_" d="M52.3,23.8c0.1,0,0.2,0,0.3,0c0.2,0,0.6,0,0.8,0l0.8-3.1c0.2-1,0.4-0.9,0.6,0l0.3,3.1l0,0
						c0.3,0,0.8,0.1,1.1,0.1l0,0l1.1-3c0.3-0.9,0.6-0.9,0.6,0.1l-0.1,3.1c0.3,0.1,0.8,0.2,1.1,0.2l1.4-2.8c0.4-0.9,0.7-0.8,0.6,0.2
						l-0.4,3.1l0,0c0.3,0.1,0.8,0.2,1.1,0.4l0,0l1.7-2.7c0.6-0.8,0.8-0.7,0.6,0.2L62.9,26c0.3,0.2,0.7,0.3,1,0.6l2-2.4
						c0.7-0.8,0.9-0.7,0.6,0.3l-1.1,2.9l0,0c0.3,0.2,0.7,0.4,0.9,0.7l0,0l2.3-2.1c0.7-0.7,0.9-0.6,0.4,0.3l-1.6,3
						c0.3,0.2,0.6,0.4,0.9,0.8l2.6-1.8c0.8-0.6,1-0.4,0.4,0.4l-1.8,2.6l0,0c0.2,0.2,0.6,0.6,0.8,0.9l0,0l2.8-1.6
						c0.9-0.4,1-0.2,0.3,0.4l-2.1,2.3c0.2,0.3,0.4,0.7,0.7,1l2.9-1.2c0.9-0.3,1-0.1,0.3,0.4l-2.3,2.1l0,0c0.2,0.3,0.3,0.7,0.6,1
						l3-0.9c0.9-0.2,1.1,0,0.2,0.6l-2.6,1.8c0.1,0.3,0.3,0.7,0.4,1.1l3-0.4c1-0.1,1,0.1,0.2,0.6l-2.7,1.4l0,0
						c0.1,0.3,0.2,0.8,0.3,1.1l0,0l3.1-0.1c1,0,1,0.2,0.1,0.6l-2.9,1.1c0.1,0.3,0.1,0.8,0.1,1.1l3,0.3c1,0.1,1,0.3,0,0.6l-3,0.8l0,0
						c0,0.3,0,0.8,0,1.1c0,0,0,0,0,0.1l0,0l3,0.6c1,0.2,1,0.4,0,0.6l-3,0.4c0,0.4-0.1,0.8-0.1,1.2l2.9,1c0.9,0.3,0.9,0.6-0.1,0.6h-3
						c-0.1,0.3-0.1,0.8-0.2,1.1l0,0l2.8,1.3c0.9,0.4,0.8,0.7-0.1,0.6l-3-0.3c-0.1,0.3-0.2,0.8-0.3,1.1l2.6,1.7
						C78,57.8,78,58,77,57.8l-2.9-0.7l0,0c-0.2,0.3-0.3,0.8-0.6,1.1l0,0l2.3,1.9c0.8,0.6,0.7,0.9-0.3,0.6l-3-1.4
						c-0.2,0.3-0.4,0.7-0.7,1l2.1,2.1c0.7,0.7,0.6,0.9-0.3,0.4L71,61.4l0,0c-0.2,0.3-0.4,0.7-0.8,0.9l1.9,2.3c0.6,0.8,0.4,1-0.4,0.4
						l-2.6-1.7c-0.3,0.3-0.6,0.6-0.9,0.8l1.6,2.6c0.6,0.9,0.3,1-0.4,0.3L67,65.2l0,0c-0.3,0.2-0.7,0.4-1,0.7l1.2,2.8
						c0.4,0.9,0.2,1-0.4,0.3l-2-2.2c-0.3,0.2-0.7,0.4-1.1,0.7l0.9,2.9c0.3,0.9,0.1,1-0.6,0.2l-1.8-2.4l0,0c-0.3,0.1-0.8,0.3-1.1,0.4
						l0,0l0.6,2.9c0.2,1-0.1,1-0.6,0.2l-1.4-2.3c-0.3,0.1-0.8,0.2-1.1,0.3l0.2,3c0.1,1-0.2,1-0.6,0.1L57,70l0,0
						c-0.3,0.1-0.8,0.1-1.2,0.2l0,0l-0.2,3c0,1-0.3,1-0.6,0.1l-0.7-3c-0.4,0-0.8,0-1.2,0.1l-0.6,3c-0.2,1-0.4,1-0.6,0l-0.4-3l0,0
						c-0.4,0-0.8,0-1.2-0.1l0,0l-0.9,2.9c-0.2,0.9-0.6,0.9-0.6-0.1l-0.1-3C48.4,70,48,70,47.7,69.9l-1.3,2.8
						c-0.3,0.9-0.7,0.9-0.6-0.1l0.2-3c-0.3-0.1-0.8-0.2-1.1-0.3l0,0l-1.6,2.7c-0.4,0.9-0.8,0.8-0.6-0.2l0.6-3
						c-0.3-0.1-0.7-0.3-1.1-0.4l-1.9,2.4c-0.6,0.8-0.8,0.7-0.6-0.2l1-2.9l0,0c-0.3-0.2-0.7-0.4-1-0.6l0,0l-2.1,2.2
						c-0.7,0.7-0.9,0.6-0.4-0.3l1.3-2.8c-0.3-0.2-0.7-0.4-0.9-0.8L35.4,67c-0.8,0.7-1,0.4-0.4-0.3l1.6-2.7l0,0
						c-0.3-0.2-0.6-0.6-0.8-0.8l0,0l-2.6,1.7c-0.8,0.6-1,0.3-0.4-0.4l1.9-2.4c-0.2-0.3-0.4-0.6-0.7-0.9l-2.8,1.3
						c-0.9,0.4-1,0.2-0.3-0.4l2.2-2.2l0,0c-0.2-0.3-0.4-0.7-0.6-1l-2.9,1c-0.9,0.3-1,0.1-0.2-0.6l2.4-1.9c-0.2-0.3-0.3-0.7-0.4-1
						L28.2,57c-1,0.2-1.1,0-0.2-0.6l2.7-1.6l0,0c-0.1-0.3-0.2-0.8-0.3-1.1l0,0l-3.1,0.3c-1,0.1-1-0.1-0.1-0.6l2.8-1.3
						c-0.1-0.3-0.1-0.8-0.2-1.1L26.5,51c-1,0-1-0.3-0.1-0.6l3-1l0,0c0-0.3-0.1-0.8-0.1-1.1l0,0l-3.1-0.4c-1-0.1-1-0.4,0-0.6l3.1-0.6
						c0-0.3,0-0.8,0-1.1l-3-0.8c-0.9-0.2-0.9-0.6,0.1-0.6l3.1-0.2l0,0c0-0.3,0.1-0.8,0.2-1.1l0,0l-2.9-1.1c-0.9-0.3-0.9-0.6,0.1-0.6
						l3.1,0.1c0.1-0.3,0.2-0.8,0.3-1.1l-2.8-1.4c-0.9-0.4-0.8-0.7,0.2-0.6l3.1,0.6l0,0c0.1-0.3,0.3-0.7,0.4-1l0,0l-2.6-1.8
						c-0.8-0.6-0.7-0.8,0.2-0.6l3,0.9c0.2-0.3,0.3-0.7,0.6-1l-2.3-2.1c-0.8-0.7-0.6-0.9,0.3-0.4l2.9,1.2l0,0
						c0.2-0.3,0.4-0.6,0.7-0.9l0,0L32,30.8c-0.7-0.8-0.4-0.9,0.3-0.4l2.8,1.6c0.2-0.3,0.6-0.6,0.8-0.9l-1.8-2.9
						c-0.6-0.8-0.3-1,0.4-0.4l2.6,1.9l0,0c0.2-0.2,0.6-0.4,0.9-0.7l-1.4-2.8c-0.4-0.9-0.2-1,0.4-0.3l2.3,2.2
						c0.3-0.2,0.7-0.4,0.9-0.7l-1.1-3c-0.3-0.9-0.1-1,0.6-0.3l2,2.4l0,0c0.3-0.2,0.7-0.3,1-0.4l0,0l-0.8-3.1c-0.2-1,0-1.1,0.6-0.2
						l1.7,2.7c0.3-0.1,0.7-0.2,1-0.3l-0.3-3.1c-0.1-1,0.1-1,0.6-0.1l1.3,2.9l0,0c0.3-0.1,0.8-0.2,1.1-0.2l0,0v-3.2
						c0-1,0.2-1,0.6-0.1l1.1,3c0.3,0,0.8-0.1,1.1-0.1l0.3-3.1c0.1-1,0.3-1,0.6,0L52.3,23.8L52.3,23.8z M52.6,66.2
						c10.6,0,19.1-8.6,19.1-19.1S63.2,28,52.6,28C42,28,33.4,36.4,33.4,47C33.4,57.6,42,66.2,52.6,66.2z"/>
				</g>
				<g>
					<path id="path-3_4_" class="st2" d="M52.3,23.8c0.1,0,0.2,0,0.3,0c0.2,0,0.6,0,0.8,0l0.8-3.1c0.2-1,0.4-0.9,0.6,0l0.3,3.1l0,0
						c0.3,0,0.8,0.1,1.1,0.1l0,0l1.1-3c0.3-0.9,0.6-0.9,0.6,0.1l-0.1,3.1c0.3,0.1,0.8,0.2,1.1,0.2l1.4-2.8c0.4-0.9,0.7-0.8,0.6,0.2
						l-0.4,3.1l0,0c0.3,0.1,0.8,0.2,1.1,0.4l0,0l1.7-2.7c0.6-0.8,0.8-0.7,0.6,0.2L62.9,26c0.3,0.2,0.7,0.3,1,0.6l2-2.4
						c0.7-0.8,0.9-0.7,0.6,0.3l-1.1,2.9l0,0c0.3,0.2,0.7,0.4,0.9,0.7l0,0l2.3-2.1c0.7-0.7,0.9-0.6,0.4,0.3l-1.6,3
						c0.3,0.2,0.6,0.4,0.9,0.8l2.6-1.8c0.8-0.6,1-0.4,0.4,0.4l-1.8,2.6l0,0c0.2,0.2,0.6,0.6,0.8,0.9l0,0l2.8-1.6
						c0.9-0.4,1-0.2,0.3,0.4l-2.1,2.3c0.2,0.3,0.4,0.7,0.7,1l2.9-1.2c0.9-0.3,1-0.1,0.3,0.4l-2.3,2.1l0,0c0.2,0.3,0.3,0.7,0.6,1
						l3-0.9c0.9-0.2,1.1,0,0.2,0.6l-2.6,1.8c0.1,0.3,0.3,0.7,0.4,1.1l3-0.4c1-0.1,1,0.1,0.2,0.6l-2.7,1.4l0,0
						c0.1,0.3,0.2,0.8,0.3,1.1l0,0l3.1-0.1c1,0,1,0.2,0.1,0.6l-2.9,1.1c0.1,0.3,0.1,0.8,0.1,1.1l3,0.3c1,0.1,1,0.3,0,0.6l-3,0.8l0,0
						c0,0.3,0,0.8,0,1.1c0,0,0,0,0,0.1l0,0l3,0.6c1,0.2,1,0.4,0,0.6l-3,0.4c0,0.4-0.1,0.8-0.1,1.2l2.9,1c0.9,0.3,0.9,0.6-0.1,0.6h-3
						c-0.1,0.3-0.1,0.8-0.2,1.1l0,0l2.8,1.3c0.9,0.4,0.8,0.7-0.1,0.6l-3-0.3c-0.1,0.3-0.2,0.8-0.3,1.1l2.6,1.7
						C78,57.8,78,58,77,57.8l-2.9-0.7l0,0c-0.2,0.3-0.3,0.8-0.6,1.1l0,0l2.3,1.9c0.8,0.6,0.7,0.9-0.3,0.6l-3-1.4
						c-0.2,0.3-0.4,0.7-0.7,1l2.1,2.1c0.7,0.7,0.6,0.9-0.3,0.4L71,61.4l0,0c-0.2,0.3-0.4,0.7-0.8,0.9l1.9,2.3c0.6,0.8,0.4,1-0.4,0.4
						l-2.6-1.7c-0.3,0.3-0.6,0.6-0.9,0.8l1.6,2.6c0.6,0.9,0.3,1-0.4,0.3L67,65.2l0,0c-0.3,0.2-0.7,0.4-1,0.7l1.2,2.8
						c0.4,0.9,0.2,1-0.4,0.3l-2-2.2c-0.3,0.2-0.7,0.4-1.1,0.7l0.9,2.9c0.3,0.9,0.1,1-0.6,0.2l-1.8-2.4l0,0c-0.3,0.1-0.8,0.3-1.1,0.4
						l0,0l0.6,2.9c0.2,1-0.1,1-0.6,0.2l-1.4-2.3c-0.3,0.1-0.8,0.2-1.1,0.3l0.2,3c0.1,1-0.2,1-0.6,0.1L57,70l0,0
						c-0.3,0.1-0.8,0.1-1.2,0.2l0,0l-0.2,3c0,1-0.3,1-0.6,0.1l-0.7-3c-0.4,0-0.8,0-1.2,0.1l-0.6,3c-0.2,1-0.4,1-0.6,0l-0.4-3l0,0
						c-0.4,0-0.8,0-1.2-0.1l0,0l-0.9,2.9c-0.2,0.9-0.6,0.9-0.6-0.1l-0.1-3C48.4,70,48,70,47.7,69.9l-1.3,2.8
						c-0.3,0.9-0.7,0.9-0.6-0.1l0.2-3c-0.3-0.1-0.8-0.2-1.1-0.3l0,0l-1.6,2.7c-0.4,0.9-0.8,0.8-0.6-0.2l0.6-3
						c-0.3-0.1-0.7-0.3-1.1-0.4l-1.9,2.4c-0.6,0.8-0.8,0.7-0.6-0.2l1-2.9l0,0c-0.3-0.2-0.7-0.4-1-0.6l0,0l-2.1,2.2
						c-0.7,0.7-0.9,0.6-0.4-0.3l1.3-2.8c-0.3-0.2-0.7-0.4-0.9-0.8L35.4,67c-0.8,0.7-1,0.4-0.4-0.3l1.6-2.7l0,0
						c-0.3-0.2-0.6-0.6-0.8-0.8l0,0l-2.6,1.7c-0.8,0.6-1,0.3-0.4-0.4l1.9-2.4c-0.2-0.3-0.4-0.6-0.7-0.9l-2.8,1.3
						c-0.9,0.4-1,0.2-0.3-0.4l2.2-2.2l0,0c-0.2-0.3-0.4-0.7-0.6-1l-2.9,1c-0.9,0.3-1,0.1-0.2-0.6l2.4-1.9c-0.2-0.3-0.3-0.7-0.4-1
						L28.2,57c-1,0.2-1.1,0-0.2-0.6l2.7-1.6l0,0c-0.1-0.3-0.2-0.8-0.3-1.1l0,0l-3.1,0.3c-1,0.1-1-0.1-0.1-0.6l2.8-1.3
						c-0.1-0.3-0.1-0.8-0.2-1.1L26.5,51c-1,0-1-0.3-0.1-0.6l3-1l0,0c0-0.3-0.1-0.8-0.1-1.1l0,0l-3.1-0.4c-1-0.1-1-0.4,0-0.6l3.1-0.6
						c0-0.3,0-0.8,0-1.1l-3-0.8c-0.9-0.2-0.9-0.6,0.1-0.6l3.1-0.2l0,0c0-0.3,0.1-0.8,0.2-1.1l0,0l-2.9-1.1c-0.9-0.3-0.9-0.6,0.1-0.6
						l3.1,0.1c0.1-0.3,0.2-0.8,0.3-1.1l-2.8-1.4c-0.9-0.4-0.8-0.7,0.2-0.6l3.1,0.6l0,0c0.1-0.3,0.3-0.7,0.4-1l0,0l-2.6-1.8
						c-0.8-0.6-0.7-0.8,0.2-0.6l3,0.9c0.2-0.3,0.3-0.7,0.6-1l-2.3-2.1c-0.8-0.7-0.6-0.9,0.3-0.4l2.9,1.2l0,0
						c0.2-0.3,0.4-0.6,0.7-0.9l0,0L32,30.8c-0.7-0.8-0.4-0.9,0.3-0.4l2.8,1.6c0.2-0.3,0.6-0.6,0.8-0.9l-1.8-2.9
						c-0.6-0.8-0.3-1,0.4-0.4l2.6,1.9l0,0c0.2-0.2,0.6-0.4,0.9-0.7l-1.4-2.8c-0.4-0.9-0.2-1,0.4-0.3l2.3,2.2
						c0.3-0.2,0.7-0.4,0.9-0.7l-1.1-3c-0.3-0.9-0.1-1,0.6-0.3l2,2.4l0,0c0.3-0.2,0.7-0.3,1-0.4l0,0l-0.8-3.1c-0.2-1,0-1.1,0.6-0.2
						l1.7,2.7c0.3-0.1,0.7-0.2,1-0.3l-0.3-3.1c-0.1-1,0.1-1,0.6-0.1l1.3,2.9l0,0c0.3-0.1,0.8-0.2,1.1-0.2l0,0v-3.2
						c0-1,0.2-1,0.6-0.1l1.1,3c0.3,0,0.8-0.1,1.1-0.1l0.3-3.1c0.1-1,0.3-1,0.6,0L52.3,23.8L52.3,23.8z M52.6,66.2
						c10.6,0,19.1-8.6,19.1-19.1S63.2,28,52.6,28C42,28,33.4,36.4,33.4,47C33.4,57.6,42,66.2,52.6,66.2z"/>
				</g>
				<g>
					<path id="path-3_15_" class="st3" d="M52.3,23.8c0.1,0,0.2,0,0.3,0c0.2,0,0.6,0,0.8,0l0.8-3.1c0.2-1,0.4-0.9,0.6,0l0.3,3.1l0,0
						c0.3,0,0.8,0.1,1.1,0.1l0,0l1.1-3c0.3-0.9,0.6-0.9,0.6,0.1l-0.1,3.1c0.3,0.1,0.8,0.2,1.1,0.2l1.4-2.8c0.4-0.9,0.7-0.8,0.6,0.2
						l-0.4,3.1l0,0c0.3,0.1,0.8,0.2,1.1,0.4l0,0l1.7-2.7c0.6-0.8,0.8-0.7,0.6,0.2L62.9,26c0.3,0.2,0.7,0.3,1,0.6l2-2.4
						c0.7-0.8,0.9-0.7,0.6,0.3l-1.1,2.9l0,0c0.3,0.2,0.7,0.4,0.9,0.7l0,0l2.3-2.1c0.7-0.7,0.9-0.6,0.4,0.3l-1.6,3
						c0.3,0.2,0.6,0.4,0.9,0.8l2.6-1.8c0.8-0.6,1-0.4,0.4,0.4l-1.8,2.6l0,0c0.2,0.2,0.6,0.6,0.8,0.9l0,0l2.8-1.6
						c0.9-0.4,1-0.2,0.3,0.4l-2.1,2.3c0.2,0.3,0.4,0.7,0.7,1l2.9-1.2c0.9-0.3,1-0.1,0.3,0.4l-2.3,2.1l0,0c0.2,0.3,0.3,0.7,0.6,1
						l3-0.9c0.9-0.2,1.1,0,0.2,0.6l-2.6,1.8c0.1,0.3,0.3,0.7,0.4,1.1l3-0.4c1-0.1,1,0.1,0.2,0.6l-2.7,1.4l0,0
						c0.1,0.3,0.2,0.8,0.3,1.1l0,0l3.1-0.1c1,0,1,0.2,0.1,0.6l-2.9,1.1c0.1,0.3,0.1,0.8,0.1,1.1l3,0.3c1,0.1,1,0.3,0,0.6l-3,0.8l0,0
						c0,0.3,0,0.8,0,1.1c0,0,0,0,0,0.1l0,0l3,0.6c1,0.2,1,0.4,0,0.6l-3,0.4c0,0.4-0.1,0.8-0.1,1.2l2.9,1c0.9,0.3,0.9,0.6-0.1,0.6h-3
						c-0.1,0.3-0.1,0.8-0.2,1.1l0,0l2.8,1.3c0.9,0.4,0.8,0.7-0.1,0.6l-3-0.3c-0.1,0.3-0.2,0.8-0.3,1.1l2.6,1.7
						C78,57.8,78,58,77,57.8l-2.9-0.7l0,0c-0.2,0.3-0.3,0.8-0.6,1.1l0,0l2.3,1.9c0.8,0.6,0.7,0.9-0.3,0.6l-3-1.4
						c-0.2,0.3-0.4,0.7-0.7,1l2.1,2.1c0.7,0.7,0.6,0.9-0.3,0.4L71,61.4l0,0c-0.2,0.3-0.4,0.7-0.8,0.9l1.9,2.3c0.6,0.8,0.4,1-0.4,0.4
						l-2.6-1.7c-0.3,0.3-0.6,0.6-0.9,0.8l1.6,2.6c0.6,0.9,0.3,1-0.4,0.3L67,65.2l0,0c-0.3,0.2-0.7,0.4-1,0.7l1.2,2.8
						c0.4,0.9,0.2,1-0.4,0.3l-2-2.2c-0.3,0.2-0.7,0.4-1.1,0.7l0.9,2.9c0.3,0.9,0.1,1-0.6,0.2l-1.8-2.4l0,0c-0.3,0.1-0.8,0.3-1.1,0.4
						l0,0l0.6,2.9c0.2,1-0.1,1-0.6,0.2l-1.4-2.3c-0.3,0.1-0.8,0.2-1.1,0.3l0.2,3c0.1,1-0.2,1-0.6,0.1L57,70l0,0
						c-0.3,0.1-0.8,0.1-1.2,0.2l0,0l-0.2,3c0,1-0.3,1-0.6,0.1l-0.7-3c-0.4,0-0.8,0-1.2,0.1l-0.6,3c-0.2,1-0.4,1-0.6,0l-0.4-3l0,0
						c-0.4,0-0.8,0-1.2-0.1l0,0l-0.9,2.9c-0.2,0.9-0.6,0.9-0.6-0.1l-0.1-3C48.4,70,48,70,47.7,69.9l-1.3,2.8
						c-0.3,0.9-0.7,0.9-0.6-0.1l0.2-3c-0.3-0.1-0.8-0.2-1.1-0.3l0,0l-1.6,2.7c-0.4,0.9-0.8,0.8-0.6-0.2l0.6-3
						c-0.3-0.1-0.7-0.3-1.1-0.4l-1.9,2.4c-0.6,0.8-0.8,0.7-0.6-0.2l1-2.9l0,0c-0.3-0.2-0.7-0.4-1-0.6l0,0l-2.1,2.2
						c-0.7,0.7-0.9,0.6-0.4-0.3l1.3-2.8c-0.3-0.2-0.7-0.4-0.9-0.8L35.4,67c-0.8,0.7-1,0.4-0.4-0.3l1.6-2.7l0,0
						c-0.3-0.2-0.6-0.6-0.8-0.8l0,0l-2.6,1.7c-0.8,0.6-1,0.3-0.4-0.4l1.9-2.4c-0.2-0.3-0.4-0.6-0.7-0.9l-2.8,1.3
						c-0.9,0.4-1,0.2-0.3-0.4l2.2-2.2l0,0c-0.2-0.3-0.4-0.7-0.6-1l-2.9,1c-0.9,0.3-1,0.1-0.2-0.6l2.4-1.9c-0.2-0.3-0.3-0.7-0.4-1
						L28.2,57c-1,0.2-1.1,0-0.2-0.6l2.7-1.6l0,0c-0.1-0.3-0.2-0.8-0.3-1.1l0,0l-3.1,0.3c-1,0.1-1-0.1-0.1-0.6l2.8-1.3
						c-0.1-0.3-0.1-0.8-0.2-1.1L26.5,51c-1,0-1-0.3-0.1-0.6l3-1l0,0c0-0.3-0.1-0.8-0.1-1.1l0,0l-3.1-0.4c-1-0.1-1-0.4,0-0.6l3.1-0.6
						c0-0.3,0-0.8,0-1.1l-3-0.8c-0.9-0.2-0.9-0.6,0.1-0.6l3.1-0.2l0,0c0-0.3,0.1-0.8,0.2-1.1l0,0l-2.9-1.1c-0.9-0.3-0.9-0.6,0.1-0.6
						l3.1,0.1c0.1-0.3,0.2-0.8,0.3-1.1l-2.8-1.4c-0.9-0.4-0.8-0.7,0.2-0.6l3.1,0.6l0,0c0.1-0.3,0.3-0.7,0.4-1l0,0l-2.6-1.8
						c-0.8-0.6-0.7-0.8,0.2-0.6l3,0.9c0.2-0.3,0.3-0.7,0.6-1l-2.3-2.1c-0.8-0.7-0.6-0.9,0.3-0.4l2.9,1.2l0,0
						c0.2-0.3,0.4-0.6,0.7-0.9l0,0L32,30.8c-0.7-0.8-0.4-0.9,0.3-0.4l2.8,1.6c0.2-0.3,0.6-0.6,0.8-0.9l-1.8-2.9
						c-0.6-0.8-0.3-1,0.4-0.4l2.6,1.9l0,0c0.2-0.2,0.6-0.4,0.9-0.7l-1.4-2.8c-0.4-0.9-0.2-1,0.4-0.3l2.3,2.2
						c0.3-0.2,0.7-0.4,0.9-0.7l-1.1-3c-0.3-0.9-0.1-1,0.6-0.3l2,2.4l0,0c0.3-0.2,0.7-0.3,1-0.4l0,0l-0.8-3.1c-0.2-1,0-1.1,0.6-0.2
						l1.7,2.7c0.3-0.1,0.7-0.2,1-0.3l-0.3-3.1c-0.1-1,0.1-1,0.6-0.1l1.3,2.9l0,0c0.3-0.1,0.8-0.2,1.1-0.2l0,0v-3.2
						c0-1,0.2-1,0.6-0.1l1.1,3c0.3,0,0.8-0.1,1.1-0.1l0.3-3.1c0.1-1,0.3-1,0.6,0L52.3,23.8L52.3,23.8z M52.6,66.2
						c10.6,0,19.1-8.6,19.1-19.1S63.2,28,52.6,28C42,28,33.4,36.4,33.4,47C33.4,57.6,42,66.2,52.6,66.2z"/>
				</g>
			</g>
			<g id="Shape_1_">
				<g>
					<path class="st4" d="M76,51.9H54.8c-1.8,0-4.1,1.2-5,2.9L38.9,73.7c-1.2,2-0.2,4.4,2.1,5.6c3.4,1.9,12.4,1.8,19.3-0.2
						c5.3-1.9,9.9-5.2,13.4-9.4c4.7-5.9,6.1-11.9,6.1-13.7C79.9,53.9,78.3,51.9,76,51.9z"/>
					<circle class="st4" cx="50" cy="50" r="1.7"/>
					
						<linearGradient id="SVGID_1_" gradientUnits="userSpaceOnUse" x1="-1074.2891" y1="-26.4283" x2="-1074.2891" y2="-24.7612" gradientTransform="matrix(48.1623 0 0 48.1543 51790.125 1282.5779)">
						<stop  offset="0" style="stop-color:#D9DADB"/>
						<stop  offset="1" style="stop-color:#7D8082"/>
					</linearGradient>
					<path class="st5" d="M89,52c1.4-0.2,1.4-0.6,0-0.9l-4.1-0.8c0-0.1,0-0.2,0-0.3c0-0.6,0-1.1,0-1.7l4-1c1.4-0.3,1.3-0.8-0.1-0.9
						l-4.1-0.3c-0.1-0.7-0.1-1.2-0.2-1.9l3.9-1.4c1.3-0.6,1.3-0.9-0.1-0.9L84.1,42c-0.1-0.7-0.3-1.2-0.4-1.9l3.7-1.9
						c1.3-0.7,1.1-1-0.2-0.8L83,38.1c-0.2-0.6-0.4-1.2-0.7-1.8l3.4-2.3c1.2-0.9,1-1.2-0.3-0.8l-4,1.1c-0.3-0.6-0.6-1.1-0.9-1.7
						l3.1-2.8c1.1-1,0.9-1.3-0.4-0.8l-3.8,1.6c-0.3-0.6-0.8-1.1-1.1-1.6l2.8-3.1c1-1.1,0.8-1.3-0.6-0.7l-3.9,2
						c-0.4-0.4-0.8-1-1.2-1.4l2.4-3.4c0.9-1.2,0.6-1.4-0.7-0.7l-3.3,2.4c-0.4-0.4-0.9-0.9-1.4-1.2l2-3.7c0.7-1.3,0.3-1.6-0.7-0.6
						l-3,2.8c-0.6-0.3-1-0.8-1.6-1.1l1.6-3.9c0.6-1.3,0.2-1.6-0.8-0.4l-2.7,3.1c-0.6-0.3-1.1-0.6-1.7-0.9l1-4c0.3-1.4,0-1.6-0.8-0.3
						l-2.2,3.4c-0.6-0.2-1.2-0.4-1.8-0.7l0.6-4.1c0.2-1.4-0.1-1.6-0.8-0.2l-1.9,3.7c-0.6-0.2-1.2-0.3-1.9-0.4l0.1-4.1
						c0-1.4-0.3-1.6-0.9-0.1l-1.4,3.9c-0.7-0.1-1.2-0.2-1.9-0.2l-0.7-4C53,9.7,52.6,9.7,52.2,11l-1,4c-0.4,0-0.9,0-1.3,0
						c-0.2,0-0.4,0-0.6,0l-0.9-4.1c-0.3-1.4-0.7-1.4-0.9,0L47.1,15c-0.7,0-1.2,0.1-1.9,0.2l-1.4-3.9c-0.4-1.3-0.9-1.3-0.9,0.1
						l0.1,4.1c-0.7,0.1-1.2,0.2-1.9,0.4l-1.8-3.8c-0.7-1.3-1-1.2-0.9,0.2l0.4,4.1c-0.6,0.2-1.2,0.4-1.8,0.7l-2.2-3.4
						c-0.8-1.2-1.1-1.1-0.8,0.3l1,4c-0.6,0.2-1.1,0.6-1.7,0.9l-2.7-3.2c-0.9-1.1-1.2-0.9-0.8,0.4l1.4,3.9c-0.6,0.3-1.1,0.7-1.6,1
						l-3-2.9c-1.1-1-1.3-0.8-0.7,0.6l1.9,3.7c-0.4,0.4-1,0.8-1.4,1.2l-3.3-2.4c-1.2-0.9-1.4-0.6-0.7,0.6l2.3,3.4
						c-0.4,0.4-0.9,0.9-1.3,1.4l-3.6-2.1c-1.2-0.8-1.6-0.4-0.6,0.7l2.7,3.1l0,0c-0.3,0.4-0.8,1-1.1,1.6l-3.8-1.7
						C16,27.7,15.8,28,16.9,29l3.1,2.8c-0.3,0.6-0.7,1.1-0.9,1.7l-4-1.1c-1.4-0.4-1.6,0-0.3,0.8l3.3,2.3c-0.2,0.6-0.6,1.1-0.8,1.8
						l-4.1-0.7c-1.4-0.2-1.6,0.1-0.3,0.8l3.7,2c-0.2,0.6-0.3,1.2-0.6,1.8L11.9,41c-1.4,0-1.6,0.3-0.2,0.9l3.9,1.4
						c-0.1,0.7-0.2,1.2-0.3,1.9l-4.1,0.6c-1.4,0.1-1.4,0.4-0.1,0.9l4,1.1c0,0.7-0.1,1.2-0.1,1.9l-4.1,0.8c-1.4,0.2-1.4,0.7,0,0.9
						l4.1,0.6c0,0.7,0.1,1.2,0.1,1.9L11,55c-1.4,0.4-1.3,0.8,0.1,0.9l4.1,0.1c0.1,0.7,0.2,1.2,0.3,1.9l-3.8,1.8
						c-1.3,0.7-1.2,1,0.2,0.9l4.1-0.4c0.2,0.7,0.3,1.2,0.6,1.9l-3.6,2.1c-1.2,0.8-1.1,1.1,0.3,0.8l4.1-0.9c0.2,0.6,0.6,1.1,0.8,1.8
						l-3.2,2.6c-1.1,0.9-1,1.2,0.4,0.8l3.9-1.3c0.3,0.6,0.7,1.1,1,1.7l-2.7,2.7c-1,1-0.8,1.3,0.4,0.7L22,71c0.3,0.6,0.8,1,1.2,1.4
						l-2.6,3.2c-0.9,1.1-0.7,1.4,0.6,0.7l3.4-2.2c0.4,0.4,0.9,0.9,1.3,1.3L23.9,79c-0.8,1.2-0.4,1.4,0.7,0.6l3.2-2.7
						c0.4,0.4,1,0.8,1.6,1.2l-1.8,3.8c-0.7,1.3-0.3,1.6,0.7,0.4l2.9-3c0.6,0.3,1.1,0.7,1.7,1l-1.3,3.9c-0.4,1.3-0.1,1.6,0.8,0.4
						l2.6-3.3c0.6,0.2,1.1,0.6,1.8,0.8l-0.8,4.1c-0.3,1.4,0.1,1.6,0.8,0.3l2.1-3.6c0.6,0.2,1.2,0.4,1.8,0.6L40,87.8
						c-0.1,1.4,0.2,1.6,0.9,0.2l1.7-3.8c0.7,0.1,1.2,0.2,1.9,0.3l0.2,4.1c0.1,1.4,0.4,1.4,0.9,0.1l1.1-4c0.7,0.1,1.3,0.1,1.9,0.1
						l0.7,4.1c0.2,1.4,0.6,1.4,0.9,0l0.8-4.1c0.7,0,1.2,0,1.9-0.1l1.1,4c0.4,1.4,0.8,1.3,0.9-0.1l0.2-4.1c0.7-0.1,1.2-0.2,1.9-0.3
						l1.6,3.8c0.6,1.3,0.9,1.2,0.9-0.2l-0.4-3.9c0.7-0.1,1.2-0.3,1.8-0.6l2.1,3.6c0.8,1.2,1.1,1.1,0.8-0.3l-0.8-4.1
						c0.6-0.2,1.2-0.4,1.8-0.8L67,85c0.9,1.2,1.2,1,0.8-0.4l-1.1-3.8c0.6-0.3,1.1-0.7,1.7-1l2.8,3c1,1.1,1.3,0.9,0.8-0.4l-1.7-3.8
						c0.6-0.3,1-0.8,1.6-1.1l3.2,2.7c1.1,0.9,1.4,0.7,0.7-0.6L73.6,76c0.4-0.4,0.9-0.9,1.3-1.3l3.4,2.2c1.2,0.8,1.4,0.6,0.6-0.7
						L76.3,73c0.4-0.4,0.8-1,1.2-1.4l3.8,1.9c1.3,0.7,1.6,0.3,0.6-0.7l-3-3c0.3-0.6,0.7-1,1-1.6l3.9,1.3c1.3,0.4,1.6,0.1,0.4-0.8
						L81,66.2c0.3-0.6,0.6-1.1,0.9-1.8l4,0.9c1.4,0.3,1.6,0,0.3-0.8l-3.6-2.2c0.2-0.6,0.4-1.2,0.7-1.8l4.1,0.4
						c1.4,0.1,1.6-0.2,0.2-0.9l-3.8-1.8c0.1-0.7,0.3-1.2,0.4-1.9l4.1-0.1c1.4,0,1.6-0.4,0.1-0.9l-3.9-1c0.1-0.7,0.1-1.2,0.2-1.9
						L89,52z M35.4,71.6c-1.1,2-4,2.2-5.8,1.2c-1.2-0.7-4.1-3.4-6.8-7.8c-2.4-4.4-3.8-9.4-3.8-14.9c0-9.1,3.9-17.2,10.2-22.9
						c2-1.1,4.8-0.9,5.9,1l11,18.9c0.9,1.6,0.9,4.6-0.1,6.1L35.4,71.6z M73.8,69.6c-3.6,4.2-8.1,7.6-13.4,9.4
						c-6.9,2-15.9,2.1-19.3,0.2c-2.3-1.1-3.2-3.6-2.1-5.6l10.9-18.9c0.9-1.6,3.2-2.9,5-2.9H76c2.3,0,3.9,2,3.9,4
						C79.9,57.7,78.4,63.8,73.8,69.6z M48.3,50c0-0.9,0.8-1.7,1.7-1.7s1.7,0.8,1.7,1.7s-0.8,1.7-1.7,1.7S48.3,50.9,48.3,50z
						 M76.4,48H54.2c-1.9-0.1-4.1-1.7-5-3.3L38.7,26.3c-1.1-2,0.1-4.2,1.9-5.2c1.2-0.7,5.1-1.9,10.2-1.9
						c14.6,0.3,26.6,10.9,29.3,24.7C80.4,46.2,78.4,48,76.4,48z"/>
				</g>
			</g>
		</g>
	</g>
</g>
</svg>
