<?xml version="1.0" encoding="utf-8"?>
<!-- Generator: Adobe Illustrator 28.3.0, SVG Export Plug-In . SVG Version: 6.00 Build 0)  -->
<svg version="1.1" id="Layer_1" xmlns="http://www.w3.org/2000/svg" xmlns:xlink="http://www.w3.org/1999/xlink" x="0px" y="0px"
	 viewBox="0 0 100 100" style="enable-background:new 0 0 100 100;" xml:space="preserve">
<style type="text/css">
	.st0{fill:#FFFFFF;}
	.st1{fill:url(#Oval_00000173145131517972756450000007681267821150789520_);}
	.st2{fill:#FF1414;}
	.st3{clip-path:url(#SVGID_00000181077307594318603000000015375556961208523707_);}
	.st4{clip-path:url(#SVGID_00000003077817499613607310000017140425714590829994_);fill:#FF1414;}
</style>
<g id="Symbols_9_">
	<g id="Graphics-_x2F_-App-Icons-_x2F_-Safari">
		<g id="Safari-Icon">
			<path id="Background_10_" class="st0" d="M65.1,0c10,0,15,0,20.4,1.7c5.9,2.1,10.6,6.8,12.7,12.7c1.8,5.4,1.8,10.6,1.8,20.6v30.2
				c0,10,0,15-1.7,20.4c-2.1,5.9-6.8,10.6-12.7,12.7c-5.6,1.8-10.6,1.8-20.6,1.8H34.9c-10,0-15,0-20.4-1.7
				c-6-2.2-10.6-6.8-12.8-12.8C0,80.2,0,75.2,0,65.1V34.9c0-10,0-15,1.7-20.4C3.9,8.6,8.4,3.9,14.4,1.8C19.8,0,24.8,0,34.9,0H65.1z"
				/>
			
				<linearGradient id="Oval_00000003087195487048207650000004693152379908964781_" gradientUnits="userSpaceOnUse" x1="-1437.9038" y1="1005.8141" x2="-1437.9038" y2="1004.1475" gradientTransform="matrix(52 0 0 -52 74821 52309)">
				<stop  offset="0" style="stop-color:#23D9FD"/>
				<stop  offset="1" style="stop-color:#1F63F0"/>
			</linearGradient>
			<circle id="Oval_4_" style="fill:url(#Oval_00000003087195487048207650000004693152379908964781_);" cx="50" cy="50" r="43.3"/>
			<path id="Scale" class="st0" d="M49.1,10H50v7.4h-0.8L49.1,10L49.1,10z M56.1,10.6l0.8,0.1L55.6,18l-0.8-0.1L56.1,10.6L56.1,10.6
				z M62.9,12.3l0.8,0.3l-2.6,7l-0.8-0.3L62.9,12.3L62.9,12.3z M69.2,15.2l0.7,0.4l-3.8,6.4l-0.7-0.4L69.2,15.2L69.2,15.2z M75,19.1
				l0.7,0.6l-4.8,5.8l-0.7-0.6L75,19.1L75,19.1z M79.9,24l0.6,0.7l-5.8,4.8l-0.6-0.7L79.9,24L79.9,24z M84,29.7l0.4,0.7L78,34.1
				l-0.4-0.7L84,29.7L84,29.7z M87,36l0.3,0.8l-7,2.6L80,38.6L87,36L87,36z M88.9,42.7l0.1,0.8l-7.3,1.3L81.6,44L88.9,42.7
				L88.9,42.7z M89.6,49.6v0.8h-7.4v-0.8H89.6L89.6,49.6z M89,56.6l-0.1,0.8L81.6,56l0.1-0.8L89,56.6L89,56.6z M87.3,63.3L87,64.1
				l-7-2.6l0.3-0.8L87.3,63.3L87.3,63.3z M84.4,69.7L84,70.3l-6.6-3.7l0.4-0.7L84.4,69.7L84.4,69.7z M80.4,75.4l-0.6,0.7l-5.8-4.8
				l0.6-0.7L80.4,75.4L80.4,75.4z M75.6,80.3l-0.7,0.6l-4.8-5.8l0.7-0.6L75.6,80.3L75.6,80.3z M69.9,84.4l-0.7,0.4l-3.8-6.4l0.7-0.4
				L69.9,84.4L69.9,84.4z M63.7,87.4l-0.8,0.3l-2.6-7l0.8-0.3L63.7,87.4L63.7,87.4z M56.9,89.3l-0.8,0.1l-1.3-7.3l0.8-0.1L56.9,89.3
				L56.9,89.3z M50,90h-0.8v-7.4H50V90L50,90z M43,89.4l-0.8-0.1l1.3-7.3l0.8,0.1L43,89.4L43,89.4z M36.3,87.8l-0.8-0.3l2.6-7
				l0.8,0.3L36.3,87.8L36.3,87.8z M29.9,84.9l-0.7-0.4L33,78l0.7,0.4L29.9,84.9L29.9,84.9z M24.2,80.9l-0.7-0.6l4.8-5.8l0.7,0.6
				L24.2,80.9L24.2,80.9z M19.2,76l-0.6-0.7l5.8-4.8l0.6,0.7L19.2,76L19.2,76z M15.1,70.3l-0.4-0.7l6.4-3.8l0.4,0.7L15.1,70.3
				L15.1,70.3z M12.1,64.1l-0.2-0.8l7-2.6l0.3,0.8L12.1,64.1L12.1,64.1z M10.2,57.3l-0.1-0.8l7.3-1.3l0.1,0.8L10.2,57.3L10.2,57.3z
				 M9.6,50.4v-0.8H17v0.8H9.6L9.6,50.4z M10.1,43.4l0.1-0.8l7.3,1.3l-0.1,0.8L10.1,43.4L10.1,43.4z M11.9,36.8l0.3-0.8l7,2.6
				l-0.3,0.8L11.9,36.8L11.9,36.8z M14.8,30.3l0.4-0.7l6.4,3.8l-0.4,0.7L14.8,30.3L14.8,30.3z M18.7,24.7l0.6-0.7l5.8,4.8l-0.6,0.7
				L18.7,24.7L18.7,24.7z M23.6,19.7l0.7-0.6l4.8,5.8l-0.7,0.6L23.6,19.7L23.6,19.7z M29.2,15.6l0.7-0.4l3.8,6.4L33,22L29.2,15.6
				L29.2,15.6z M35.4,12.6l0.8-0.3l2.6,7L38,19.6L35.4,12.6L35.4,12.6z M42.2,10.7l0.8-0.1l1.3,7.3L43.6,18L42.2,10.7L42.2,10.7z"/>
			<path id="Scale_1_" class="st0" d="M52.7,10.1l0.8,0.1l-0.3,4.1h-0.9L52.7,10.1z M59.6,11.3l0.8,0.2l-1.1,4l-0.8-0.2L59.6,11.3z
				 M66.1,13.6l0.8,0.3l-1.8,3.9l-0.8-0.3L66.1,13.6z M72.1,17l0.7,0.4l-2.4,3.4l-0.7-0.4L72.1,17z M77.6,21.4l0.6,0.6l-3,3
				l-0.6-0.6L77.6,21.4z M82.1,26.8l0.4,0.7l-3.4,2.4l-0.4-0.7L82.1,26.8z M85.7,32.8l0.3,0.8l-3.8,1.7l-0.3-0.8L85.7,32.8z
				 M88.1,39.2l0.2,0.8l-4,1.1l-0.2-0.8L88.1,39.2z M89.3,46.1l0.1,0.8l-4.1,0.3l-0.1-0.8L89.3,46.1z M89.4,53.1l-0.1,0.8l-4.1-0.3
				l0.1-0.8L89.4,53.1z M88.3,60l-0.2,0.8l-4-1.1l0.2-0.8L88.3,60z M86,66.6l-0.3,0.8l-3.8-1.8l0.3-0.8L86,66.6z M82.6,72.6
				l-0.4,0.8l-3.4-2.4l0.4-0.7L82.6,72.6z M78.1,78l-0.6,0.6l-3-3l0.6-0.6L78.1,78z M72.9,82.6L72.2,83l-2.4-3.4l0.7-0.4L72.9,82.6z
				 M66.9,86.1l-0.8,0.3l-1.8-3.8l0.8-0.3L66.9,86.1z M60.3,88.6l-0.8,0.2l-1.1-4l0.8-0.2L60.3,88.6z M53.4,89.8l-0.8,0.1l-0.4-4.1
				l0.8-0.1L53.4,89.8z M46.4,89.9l-0.8-0.1l0.3-4.1l0.8,0.1L46.4,89.9z M39.7,88.8l-0.8-0.2l1.1-4l0.8,0.2L39.7,88.8z M33,86.4
				l-0.8-0.3l1.8-3.8l0.8,0.3L33,86.4z M27,83l-0.7-0.4l2.4-3.4l0.7,0.4L27,83z M21.6,78.6L21,78l3-3l0.6,0.6L21.6,78.6z M17,73.3
				l-0.4-0.7l3.4-2.4l0.4,0.7L17,73.3z M13.6,67.3l-0.3-0.8l3.8-1.8l0.3,0.8L13.6,67.3z M11,60.8L10.9,60l4-1.1l0.2,0.8L11,60.8z
				 M9.8,53.9l-0.1-0.8l4.1-0.3l0.1,0.8L9.8,53.9z M9.7,47l0.1-0.8l4.1,0.3l-0.1,0.8L9.7,47z M10.9,40.1l0.2-0.8l4,1.1l-0.2,0.7
				L10.9,40.1z M13.1,33.4l0.3-0.8l3.8,1.8l-0.3,0.8L13.1,33.4z M16.6,27.4l0.4-0.7l3.4,2.4L20,29.8L16.6,27.4z M21,22l0.6-0.6l3,3
				L24,25L21,22z M26.3,17.6l0.7-0.4l2.4,3.4L28.8,21L26.3,17.6z M32.3,14l0.8-0.3l1.8,3.8L34,17.8L32.3,14z M38.8,11.6l0.8-0.2
				l1.1,4l-0.8,0.2L38.8,11.6z M45.7,10.2l0.8-0.1l0.3,4.1L46,14.3L45.7,10.2z"/>
			
				<g id="Compass" transform="translate(30.000000, 30.000000) rotate(45.000000) translate(-30.000000, -30.000000) translate(26.500000, 4.000000)">
				<g id="Arrow_4_">
					<polyline id="path-2_1_" class="st0" points="37.6,26 25.9,26 31.5,69.2 37.6,26 25.9,26 					"/>
				</g>
				<polygon id="path-2_3_" class="st2" points="25.9,26 31.4,-17.3 37.6,26 				"/>
				<g>
					<g>
						<defs>
							<polygon id="SVGID_1_" points="37.9,-29.9 37.9,-28.8 36.8,-29.9 							"/>
						</defs>
						<clipPath id="SVGID_00000070818137066571091970000014972587501988598146_">
							<use xlink:href="#SVGID_1_"  style="overflow:visible;"/>
						</clipPath>
					</g>
					<g>
						<defs>
							<polygon id="SVGID_00000130642492387327529120000000750303463886502040_" points="66.1,10.5 65,10.5 66.1,9.4 							"/>
						</defs>
						<defs>
							<polygon id="SVGID_00000111189598694525009710000006848329598544170919_" points="68.3,12.7 69.4,12.7 68.3,13.8 							"/>
						</defs>
						<clipPath id="SVGID_00000154420012068020431660000004161026299152838308_">
							<use xlink:href="#SVGID_00000130642492387327529120000000750303463886502040_"  style="overflow:visible;"/>
						</clipPath>
						
							<clipPath id="SVGID_00000109727612345854237270000011321626078883582397_" style="clip-path:url(#SVGID_00000154420012068020431660000004161026299152838308_);">
							<use xlink:href="#SVGID_00000111189598694525009710000006848329598544170919_"  style="overflow:visible;"/>
						</clipPath>
						
							<rect id="Arrow_3_" x="10.2" y="-2.3" transform="matrix(7.605544e-06 1 -1 7.605544e-06 36.2319 -27.4957)" style="clip-path:url(#SVGID_00000109727612345854237270000011321626078883582397_);fill:#FF1414;" width="43.3" height="13.3"/>
					</g>
				</g>
			</g>
		</g>
	</g>
</g>
</svg>
